<?xml version="1.0" encoding="iso-8859-1"?>
<!-- Generator: Adobe Illustrator 17.1.0, SVG Export Plug-In . SVG Version: 6.00 Build 0)  -->
<!DOCTYPE svg PUBLIC "-//W3C//DTD SVG 1.1//EN" "http://www.w3.org/Graphics/SVG/1.1/DTD/svg11.dtd">
<svg version="1.1" id="Capa_1" xmlns="http://www.w3.org/2000/svg" xmlns:xlink="http://www.w3.org/1999/xlink" x="0px" y="0px"
	 viewBox="0 0 455 455" style="enable-background:new 0 0 455 455;" xml:space="preserve">
<g>
	<path d="M382.5,160c-17.921,0-32.5,14.58-32.5,32.5s14.579,32.5,32.5,32.5s32.5-14.58,32.5-32.5S400.421,160,382.5,160z M382.5,210
		c-9.649,0-17.5-7.851-17.5-17.5s7.851-17.5,17.5-17.5s17.5,7.851,17.5,17.5S392.149,210,382.5,210z"/>
	<path d="M382.5,240c-17.921,0-32.5,14.58-32.5,32.5s14.579,32.5,32.5,32.5s32.5-14.58,32.5-32.5S400.421,240,382.5,240z M382.5,290
		c-9.649,0-17.5-7.851-17.5-17.5s7.851-17.5,17.5-17.5s17.5,7.851,17.5,17.5S392.149,290,382.5,290z"/>
	<path d="M407.5,400h-50c-4.143,0-7.5,3.358-7.5,7.5s3.357,7.5,7.5,7.5h50c4.143,0,7.5-3.358,7.5-7.5S411.643,400,407.5,400z"/>
	<path d="M407.5,370h-50c-4.143,0-7.5,3.358-7.5,7.5s3.357,7.5,7.5,7.5h50c4.143,0,7.5-3.358,7.5-7.5S411.643,370,407.5,370z"/>
	<path d="M407.5,340h-50c-4.143,0-7.5,3.358-7.5,7.5s3.357,7.5,7.5,7.5h50c4.143,0,7.5-3.358,7.5-7.5S411.643,340,407.5,340z"/>
	<path d="M427.5,120H209.159l51.71-95.148c6.029-0.887,10.676-6.08,10.676-12.352c0-6.893-5.607-12.5-12.5-12.5
		s-12.5,5.607-12.5,12.5c0,1.853,0.416,3.607,1.143,5.19L192.086,120h-31.079L105.402,17.69c0.727-1.583,1.143-3.337,1.143-5.19
		c0-6.893-5.607-12.5-12.5-12.5s-12.5,5.607-12.5,12.5c0,6.272,4.648,11.464,10.677,12.352L143.934,120H27.5
		C12.336,120,0,132.336,0,147.5v280C0,442.664,12.336,455,27.5,455h400c15.163,0,27.5-12.336,27.5-27.5v-280
		C455,132.336,442.663,120,427.5,120z M440,427.5c0,6.893-5.607,12.5-12.5,12.5h-400c-6.893,0-12.5-5.607-12.5-12.5v-280
		c0-6.893,5.607-12.5,12.5-12.5h129.031c0.007,0,0.015,0.001,0.022,0.001c0.008,0,0.016-0.001,0.024-0.001h39.938
		c0.008,0,0.016,0.001,0.024,0.001c0.007,0,0.015-0.001,0.022-0.001H427.5c6.893,0,12.5,5.607,12.5,12.5V427.5z"/>
	<path d="M295.288,186.301C273.339,169.832,231.175,160,182.5,160s-90.839,9.832-112.789,26.301
		c-16.584,12.442-27.284,42.286-29.358,81.878c-2.17,41.436,5.903,95.697,28.756,116.916C92.856,407.144,143.253,415,182.5,415
		s89.644-7.856,113.39-29.905c8.923-8.284,16.072-21.94,21.251-40.588c1.108-3.991-1.229-8.125-5.22-9.233
		c-3.997-1.109-8.125,1.229-9.233,5.22c-4.362,15.71-10.242,27.332-17.004,33.609C268.741,389.834,228.239,400,182.5,400
		s-86.241-10.166-103.185-25.897c-16.032-14.886-26.342-60.085-23.982-105.139c1.813-34.624,10.554-61.041,23.38-70.665
		C97.868,183.928,137.637,175,182.5,175s84.632,8.928,103.786,23.299c18.288,13.721,27.929,63.492,21.949,113.307
		c-0.494,4.113,2.439,7.847,6.553,8.341c4.104,0.486,7.846-2.44,8.34-6.553C328.762,266.469,322.452,206.681,295.288,186.301z"/>
</g>
<g>
</g>
<g>
</g>
<g>
</g>
<g>
</g>
<g>
</g>
<g>
</g>
<g>
</g>
<g>
</g>
<g>
</g>
<g>
</g>
<g>
</g>
<g>
</g>
<g>
</g>
<g>
</g>
<g>
</g>
</svg>
